<?xml version="1.0" encoding="UTF-8" standalone="no"?>
<!-- Created with Inkscape (http://www.inkscape.org/) -->

<svg
   width="132.81799mm"
   height="54.209mm"
   viewBox="0 0 132.81799 54.209001"
   version="1.1"
   id="svg1"
   xml:space="preserve"
   inkscape:version="1.3 (0e150ed6c4, 2023-07-21)"
   sodipodi:docname="logo.svg"
   xmlns:inkscape="http://www.inkscape.org/namespaces/inkscape"
   xmlns:sodipodi="http://sodipodi.sourceforge.net/DTD/sodipodi-0.dtd"
   xmlns="http://www.w3.org/2000/svg"
   xmlns:svg="http://www.w3.org/2000/svg"><sodipodi:namedview
     id="namedview1"
     pagecolor="#ffffff"
     bordercolor="#000000"
     borderopacity="0.25"
     inkscape:showpageshadow="2"
     inkscape:pageopacity="0.0"
     inkscape:pagecheckerboard="0"
     inkscape:deskcolor="#d1d1d1"
     inkscape:document-units="mm"
     inkscape:zoom="1.1196396"
     inkscape:cx="249.18733"
     inkscape:cy="169.25089"
     inkscape:window-width="1366"
     inkscape:window-height="745"
     inkscape:window-x="-8"
     inkscape:window-y="-8"
     inkscape:window-maximized="1"
     inkscape:current-layer="layer1"
     showguides="false"
     showgrid="true"><inkscape:grid
       id="grid2"
       units="mm"
       originx="169.88087"
       originy="785.23688"
       spacingx="0.99999998"
       spacingy="1"
       empcolor="#0099e5"
       empopacity="0.30196078"
       color="#0099e5"
       opacity="0.14901961"
       empspacing="5"
       dotted="false"
       gridanglex="30"
       gridanglez="30"
       visible="true" /><inkscape:page
       x="0"
       y="0"
       width="132.81798"
       height="54.209"
       id="page2"
       margin="0 160.48323 0 0"
       bleed="0" /></sodipodi:namedview><defs
     id="defs1"><rect
       x="280.48416"
       y="555.18518"
       width="58.554684"
       height="23.855612"
       id="rect2" /></defs><g
     inkscape:label="Layer 1"
     inkscape:groupmode="layer"
     id="layer1"
     transform="translate(44.947653,207.76057)"><g
       style="fill:#14639f;stroke:#14639f;stroke-width:1.09717"
       id="g1"
       transform="matrix(0.80571503,0,0,0.80196321,-42.720343,-206.39482)"><g
         id="SVGRepo_bgCarrier"
         stroke-width="0" /><g
         id="SVGRepo_tracerCarrier"
         stroke-linecap="round"
         stroke-linejoin="round"
         stroke="#cccccc"
         stroke-width="0.140437" /><g
         id="SVGRepo_iconCarrier"
         style="stroke-width:1.09717"
         transform="translate(-2.0530561,0.29466584)"> <g
   id="g14"
   style="stroke-width:1.09717"> <path
   d="M 63,26 C 63,22.567 60.993,19.439 57.95,17.94 57.982,17.631 58,17.318 58,17 58,12.037 53.962,8 49,8 48.924,8 48.849,8.013 48.772,8.015 47.865,4.005 44.28,1 40,1 36.517,1 33.495,2.993 32,5.896 30.505,2.993 27.483,1 24,1 19.752,1 16.138,3.955 15.225,8.011 15.15,8.01 15.076,8 15,8 10.038,8 6,12.037 6,17 6,17.305 6.016,17.613 6.049,17.922 2.999,19.42 1,22.57 1,26 1,28.303 1.877,30.4 3.305,31.993 1.832,33.635 1,35.771 1,38 1,41.432 3.007,44.561 6.05,46.06 6.018,46.369 6,46.682 6,47 c 0,4.963 4.038,9 9,9 0.076,0 0.15,-0.01 0.225,-0.011 C 16.138,60.045 19.752,63 24,63 c 3.483,0 6.505,-1.993 8,-4.896 1.495,2.903 4.517,4.896 8,4.896 4.28,0 7.865,-3.005 8.772,-7.015 C 48.849,55.987 48.924,56 49,56 c 4.962,0 9,-4.037 9,-9 0,-0.305 -0.017,-0.612 -0.049,-0.922 C 61.001,44.581 63,41.43 63,38 63,35.697 62.123,33.6 60.695,32.007 62.168,30.365 63,28.229 63,26 Z m -6.507,18.533 -0.785,0.3 0.16,0.825 C 55.956,46.11 56,46.562 56,47 c 0,3.859 -3.14,7 -7,7 0,-4.963 -4.038,-9 -9,-9 v 2 c 3.86,0 7,3.141 7,7 0,3.859 -3.14,7 -7,7 -3.86,0 -7,-3.141 -7,-7 V 16 h -2 v 38 c 0,3.859 -3.14,7 -7,7 -3.247,0 -6.013,-2.219 -6.783,-5.288 C 21.109,54.721 24,51.196 24,47 h -2 c 0,3.859 -3.14,7 -7,7 -3.86,0 -7,-3.141 -7,-7 0,-3.859 3.14,-7 7,-7 V 38 C 11.068,38 7.725,40.539 6.503,44.06 4.372,42.824 3,40.51 3,38 3,36.266 3.647,34.605 4.793,33.327 6.265,34.376 8.059,35 10,35 V 33 C 6.14,33 3,29.859 3,26 3,23.122 4.812,20.496 7.507,19.467 L 8.293,19.166 8.132,18.341 C 8.044,17.892 8,17.44 8,17 c 0,-3.859 3.14,-7 7,-7 3.86,0 7,3.141 7,7 h 2 C 24,12.804 21.109,9.279 17.217,8.288 17.987,5.219 20.753,3 24,3 c 3.86,0 7,3.141 7,7 v 4 h 2 v -4 c 0,-3.859 3.14,-7 7,-7 3.86,0 7,3.141 7,7 0,3.859 -3.14,7 -7,7 v 2 c 4.962,0 9,-4.037 9,-9 3.86,0 7,3.141 7,7 0,3.859 -3.14,7 -7,7 v 2 c 3.932,0 7.275,-2.539 8.497,-6.061 C 59.628,21.175 61,23.49 61,26 61,27.734 60.353,29.395 59.207,30.673 57.735,29.624 55.941,29 54,29 c -4.962,0 -9,4.037 -9,9 h 2 c 0,-3.859 3.14,-7 7,-7 3.86,0 7,3.141 7,7 0,2.878 -1.812,5.504 -4.507,6.533 z"
   id="path1"
   style="stroke-width:1.09717" /> <path
   d="m 43,10 h 2 C 45,7.243 42.757,5 40,5 v 2 c 1.654,0 3,1.346 3,3 z"
   id="path2"
   style="stroke-width:1.09717" /> <path
   d="m 37,54 h -2 c 0,2.757 2.243,5 5,5 v -2 c -1.654,0 -3,-1.346 -3,-3 z"
   id="path3"
   style="stroke-width:1.09717" /> <path
   d="m 54,41 v 2 c 2.757,0 5,-2.243 5,-5 h -2 c 0,1.654 -1.346,3 -3,3 z"
   id="path4"
   style="stroke-width:1.09717" /> <path
   d="m 39,37 h -2 c 0,3.309 2.691,6 6,6 v -2 c -2.206,0 -4,-1.794 -4,-4 z"
   id="path5"
   style="stroke-width:1.09717" /> <path
   d="m 41,23 v -2 c -3.309,0 -6,2.691 -6,6 h 2 c 0,-2.206 1.794,-4 4,-4 z"
   id="path6"
   style="stroke-width:1.09717" /> <path
   d="m 25,37 h -2 c 0,3.309 2.691,6 6,6 v -2 c -2.206,0 -4,-1.794 -4,-4 z"
   id="path7"
   style="stroke-width:1.09717" /> <path
   d="m 40,28 h -2 c 0,3.309 2.691,6 6,6 v -2 c -2.206,0 -4,-1.794 -4,-4 z"
   id="path8"
   style="stroke-width:1.09717" /> <path
   d="m 27,23 v -2 c -3.309,0 -6,2.691 -6,6 h 2 c 0,-2.206 1.794,-4 4,-4 z"
   id="path9"
   style="stroke-width:1.09717" /> <path
   d="m 14,36 h 2 c 0,-2.206 1.794,-4 4,-4 v -2 c -3.309,0 -6,2.691 -6,6 z"
   id="path10"
   style="stroke-width:1.09717" /> <path
   d="m 15,50 v 2 c 2.757,0 5,-2.243 5,-5 h -2 c 0,1.654 -1.346,3 -3,3 z"
   id="path11"
   style="stroke-width:1.09717" /> <path
   d="m 5,26 h 2 c 0,-1.654 1.346,-3 3,-3 v -2 c -2.757,0 -5,2.243 -5,5 z"
   id="path12"
   style="stroke-width:1.09717" /> <path
   d="m 15,12 v 2 c 1.654,0 3,1.346 3,3 h 2 c 0,-2.757 -2.243,-5 -5,-5 z"
   id="path13"
   style="stroke-width:1.09717" /> <path
   d="m 24,5 v 2 c 1.654,0 3,1.346 3,3 h 2 C 29,7.243 26.757,5 24,5 Z"
   id="path14"
   style="stroke-width:1.09717" /> </g> </g></g><text
       xml:space="preserve"
       style="font-style:normal;font-variant:normal;font-weight:normal;font-stretch:normal;font-size:3.175px;font-family:'Lucida Console';-inkscape-font-specification:'Lucida Console';white-space:pre;inline-size:35.4889;display:inline;fill:#ffff;stroke-width:0.264583"
       x="74.655739"
       y="148.22951"
       id="text1"
       transform="matrix(5.8078133,0,-1.1501173,7.0236349,-244.77771,-1214.723)"><tspan
         x="74.655739"
         y="148.22951"
         id="tspan1">AiProf</tspan></text><text
       xml:space="preserve"
       transform="scale(0.26458333)"
       id="text2"
       style="white-space:pre;shape-inside:url(#rect2);display:inline;fill:#000000" /></g>
</svg>
