<?xml version="1.0" ?>
<!-- Uploaded to: SVG Repo, www.svgrepo.com, Generator: SVG Repo Mixer Tools -->
<svg width="800px" height="800px" viewBox="0 0 48 48" data-name="Layer 1" id="Layer_1" xmlns="http://www.w3.org/2000/svg">
<defs>
<style>.cls-1{fill:#55aae1;}.cls-2{opacity:0.35;}</style>
</defs>
<title/>
<path class="cls-1" d="M24,40A15,15,0,0,1,9,25a1,1,0,0,1,2,0,13,13,0,0,0,26,0,1,1,0,0,1,2,0A15,15,0,0,1,24,40Z"/>
<path class="cls-1" d="M24,36A11,11,0,0,1,13,25V15a11,11,0,0,1,22,0V25A11,11,0,0,1,24,36ZM24,6a9,9,0,0,0-9,9V25a9,9,0,0,0,18,0V15A9,9,0,0,0,24,6Z"/>
<path class="cls-1" d="M24,44a1,1,0,0,1-1-1V39a1,1,0,0,1,2,0v4A1,1,0,0,1,24,44Z"/>
<g class="cls-2">
<path class="cls-1" d="M25.64,5.15A10,10,0,0,1,31,14V25a7,7,0,0,1-1.67,4.52A10,10,0,0,1,21,34a9.8,9.8,0,0,1-1.64-.15A10,10,0,0,0,34,25V15A10,10,0,0,0,25.64,5.15Z"/>
</g>
</svg>