<?xml version="1.0" ?>
<!-- Uploaded to: SVG Repo, www.svgrepo.com, Generator: SVG Repo Mixer Tools -->
<svg width="800px" height="800px" viewBox="0 0 48 48" data-name="Layer 1" id="Layer_1" xmlns="http://www.w3.org/2000/svg">
<defs>
<style>.cls-1{fill:#55aae1;}.cls-2{opacity:0.35;}</style>
</defs>
<title/>
<path class="cls-1" d="M38.5,39.5a1,1,0,0,1-.71-.29l-30-30A1,1,0,1,1,9.21,7.79l30,30a1,1,0,0,1,0,1.42A1,1,0,0,1,38.5,39.5Z"/>
<path class="cls-1" d="M24,44a1,1,0,0,1-1-1V39a1,1,0,0,1,2,0v4A1,1,0,0,1,24,44Z"/>
<path class="cls-1" d="M15,15.59V15a9,9,0,0,1,18,0V25a8.94,8.94,0,0,1-2.44,6.14L32,32.56A11,11,0,0,0,35,25V15a11,11,0,0,0-21.91-1.33Z"/>
<path class="cls-1" d="M29,32.45A8.91,8.91,0,0,1,24,34a9,9,0,0,1-9-9V18.41l-2-2V25a11,11,0,0,0,17.47,8.88Z"/>
<path class="cls-1" d="M34.8,35.38A14.93,14.93,0,0,0,39,25a1,1,0,0,0-2,0,12.94,12.94,0,0,1-3.61,9Z"/>
<path class="cls-1" d="M31.89,35.31A13,13,0,0,1,11,25a1,1,0,0,0-2,0A15,15,0,0,0,33.32,36.73Z"/>
<g class="cls-2">
<path class="cls-1" d="M31,14V25a7,7,0,0,1-1.67,4.52c0,.08-.11.15-.17.23l2.11,2.1A9.93,9.93,0,0,0,34,25V15a10,10,0,0,0-8.36-9.85A10,10,0,0,1,31,14Z"/>
</g>
<g class="cls-2">
<path class="cls-1" d="M27.85,31.27A9.93,9.93,0,0,1,21,34a9.8,9.8,0,0,1-1.64-.15,10,10,0,0,0,10.4-.68Z"/>
</g>
</svg>